<?xml version="1.0" encoding="iso-8859-1"?>
<!-- Generator: Adobe Illustrator 13.0.0, SVG Export Plug-In . SVG Version: 6.00 Build 14948)  -->
<!DOCTYPE svg PUBLIC "-//W3C//DTD SVG 1.1//EN" "http://www.w3.org/Graphics/SVG/1.1/DTD/svg11.dtd">
<svg version="1.1" id="Layer_1" xmlns="http://www.w3.org/2000/svg" xmlns:xlink="http://www.w3.org/1999/xlink" x="0px" y="0px"
	 width="100px" height="100px" viewBox="0 0 100 100" enable-background="new 0 0 100 100" xml:space="preserve">
<g>
	<path fill="#A22430" d="M81.865,43.803c-0.906-2.097-2.181-4.085-3.875-5.739c-1.677-1.648-3.787-2.951-6.121-3.623
		c-2.354-0.71-4.781-0.579-7.009-0.299c-2.26,0.308-4.482,0.953-6.561,1.872c-2.077,0.911-3.997,2.144-5.747,3.39l-1.219,0.854
		c0.125-1.387,0.667-2.61,1.619-3.698c0.963-1.111,2.284-2.078,3.693-2.998c2.835-1.83,6.07-3.516,8.896-5.977
		c1.405-1.223,2.703-2.633,3.726-4.249c1.027-1.606,1.779-3.385,2.256-5.201c0.943-3.656,0.868-7.392,0.336-10.945L71.7,6.142
		l-1.009,0.033c-2.651,0.093-5.312,0.341-7.941,0.929c-2.61,0.588-5.239,1.555-7.429,3.282c-1.079,0.869-2.026,1.942-2.685,3.17
		c-0.664,1.223-1.047,2.573-1.195,3.917c-0.313,2.708,0.266,5.342,0.92,7.854l0.387-0.084c-0.453-2.549-0.756-5.15-0.303-7.62
		c0.224-1.224,0.653-2.4,1.303-3.418c0.648-1.027,1.503-1.905,2.498-2.605c1.988-1.405,4.431-2.134,6.891-2.577
		c2.13-0.374,4.311-0.504,6.5-0.514c0.225,3.04,0.112,6.089-0.738,8.89c-0.91,3.133-2.806,5.794-5.336,7.872
		c-2.521,2.111-5.585,3.633-8.676,5.51c-1.536,0.958-3.119,2.026-4.478,3.553c-0.673,0.761-1.275,1.644-1.709,2.62
		c-0.439,0.976-0.705,2.031-0.803,3.067l-0.009,0.08v0.075c0.009,0.598,0,1.176,0.173,1.979c0.051,0.206,0.117,0.434,0.238,0.71
		c0.13,0.266,0.331,0.621,0.733,0.943c0.401,0.332,0.985,0.5,1.401,0.495c0.42,0.009,0.714-0.07,0.957-0.145
		c0.467-0.154,0.771-0.327,1.06-0.486c0.28-0.164,0.527-0.322,0.766-0.476l1.34-0.92c1.705-1.186,3.395-2.213,5.192-3.012
		c1.788-0.803,3.671-1.358,5.604-1.629c1.956-0.266,3.856-0.327,5.594,0.145c1.751,0.458,3.385,1.401,4.753,2.68
		c1.368,1.284,2.488,2.876,3.329,4.632c1.677,3.525,2.228,7.625,1.877,11.641c-0.354,4.029-1.625,8.003-3.521,11.658
		c-1.9,3.656-4.385,7.046-7.298,10.034c-2.909,2.988-6.177,5.655-9.684,7.957c-3.437,2.269-7.069,4.249-10.833,5.948
		c-3.95-1.232-7.807-2.769-11.439-4.721c-3.712-1.961-7.186-4.365-10.249-7.19c-3.058-2.825-5.71-6.074-7.708-9.679
		c-1.999-3.605-3.348-7.546-3.894-11.585c-0.537-4.024-0.299-8.161,0.882-11.958c0.598-1.891,1.434-3.693,2.531-5.267
		c1.093-1.564,2.47-2.89,4.048-3.688c0.785-0.401,1.616-0.668,2.461-0.784c0.21-0.028,0.425-0.047,0.635-0.061l0.267-0.009
		l0.401,0.009c0.271,0.005,0.481,0.019,0.729,0.033c0.243,0.014,0.49,0.028,0.733,0.056c1.947,0.177,3.847,0.63,5.603,1.382
		c1.756,0.756,3.366,1.812,4.749,3.124c0.687,0.654,1.322,1.368,1.882,2.129c0.28,0.383,0.546,0.775,0.785,1.172
		c0.121,0.201,0.238,0.402,0.341,0.603l0.112,0.215L42.35,56.984l-5.291-0.037l-7.326-0.005l-2.111-0.005v2.115l-0.009,10.445v2.129
		l2.12-0.01l12.63-0.074l0.028,5.281l0.075,7.325l0.019,1.938l1.9-0.02l10.45-0.121l1.82-0.023l-0.027-1.774l-0.196-13.102
		c4.352-0.065,8.703-0.149,13.05-0.238l1.34-0.032l-0.027-1.279l-0.229-10.445l-0.023-1.106l-1.061,0.023l-7.321,0.182l-6.667,0.201
		l-0.201-6.63c-0.065-2.442-0.178-4.885-0.262-7.327h-0.396c-0.084,2.442-0.196,4.884-0.262,7.327l-0.219,7.33l-0.023,0.658
		l0.705,0.019l7.325,0.225l6.22,0.149l-0.178,8.059c-4.454-0.089-8.913-0.182-13.367-0.242l-1.561-0.023l-0.023,1.602l-0.186,12.835
		l-6.748-0.074l0.056-5.435l0.047-7.326l0.009-2.026l-2.045-0.01l-12.537-0.07l-0.005-6.233l5.215-0.004l7.326-0.052l2.063-0.015
		l-0.014-2.035l-0.103-13.368l-0.005-0.411l-0.145-0.336c-0.094-0.219-0.149-0.327-0.225-0.48l-0.219-0.411
		c-0.145-0.266-0.299-0.523-0.453-0.78c-0.317-0.504-0.654-0.99-1.009-1.457c-0.719-0.934-1.508-1.807-2.372-2.601
		c-1.728-1.588-3.745-2.867-5.906-3.759c-2.162-0.887-4.455-1.392-6.738-1.564c-0.285-0.023-0.57-0.037-0.854-0.051
		c-0.28-0.009-0.607-0.023-0.864-0.023h-0.396H27.03l-0.056,0.005l-0.117,0.004l-0.238,0.014c-0.318,0.019-0.635,0.056-0.948,0.103
		c-1.256,0.201-2.466,0.626-3.558,1.214c-2.195,1.181-3.904,2.96-5.192,4.893c-1.303,1.942-2.195,4.076-2.807,6.252
		c-1.209,4.366-1.298,8.928-0.522,13.284c0.766,4.361,2.395,8.531,4.669,12.267c2.265,3.749,5.169,7.064,8.451,9.884
		c3.287,2.825,6.952,5.15,10.771,7.107c1.919,0.976,3.885,1.839,5.879,2.624c1.994,0.789,4.02,1.484,6.065,2.105l0.224,0.07
		l0.21-0.099c3.862-1.793,7.639-3.791,11.225-6.111c3.571-2.335,6.994-4.936,10.066-7.938c3.062-3.003,5.846-6.355,8.003-10.133
		c2.162-3.764,3.712-7.947,4.31-12.336C84.064,52.646,83.682,48.02,81.865,43.803z"/>
</g>
</svg>
